<?xml version="1.0" encoding="UTF-8"?>
<svg xmlns="http://www.w3.org/2000/svg" xmlns:xlink="http://www.w3.org/1999/xlink" width="915px" height="552px" viewBox="0 0 914 552" version="1.1">
<g id="surface1">
<path style=" stroke:none;fill-rule:evenodd;fill:rgb(24.705882%,23.921569%,33.72549%);fill-opacity:1;" d="M 267.050781 398.476562 C 257.5625 398.476562 251.390625 396.117188 248.660156 391.421875 C 243.273438 382.171875 252.292969 365.9375 275.46875 343.171875 L 277.417969 345.160156 C 255.886719 366.304688 246.527344 382.238281 251.058594 390.023438 C 253.929688 394.949219 262.460938 396.714844 275.746094 395.125 C 288.9375 393.550781 306.414062 388.855469 327.695312 381.171875 C 371.507812 365.351562 426.476562 338.664062 482.472656 306.027344 C 538.464844 273.390625 588.78125 238.714844 624.148438 208.382812 C 630.941406 202.558594 637.105469 196.953125 642.472656 191.726562 C 649.515625 185.03125 656.015625 177.785156 661.90625 170.054688 C 669.835938 159.277344 672.515625 150.976562 669.648438 146.054688 C 664.859375 137.828125 644.738281 138.601562 612.992188 148.234375 L 612.1875 145.574219 C 646.246094 135.238281 666.386719 134.925781 672.050781 144.652344 C 675.566406 150.695312 672.90625 159.796875 664.144531 171.703125 C 658.164062 179.558594 651.566406 186.917969 644.410156 193.71875 C 639.003906 198.988281 632.792969 204.632812 625.957031 210.496094 C 590.464844 240.933594 540.003906 275.710938 483.871094 308.429688 C 427.734375 341.148438 372.601562 367.910156 328.636719 383.785156 C 307.160156 391.542969 289.476562 396.289062 276.074219 397.886719 C 273.085938 398.261719 270.070312 398.457031 267.050781 398.476562 Z M 267.050781 398.476562 "/>
<path style=" stroke:none;fill-rule:evenodd;fill:rgb(24.705882%,23.921569%,33.72549%);fill-opacity:1;" d="M 360.949219 351.257812 C 358.984375 351.257812 357.394531 352.859375 357.390625 354.839844 L 357.390625 497.949219 C 357.394531 499.925781 358.984375 501.53125 360.949219 501.53125 L 385.09375 501.53125 C 387.0625 501.53125 388.65625 499.925781 388.65625 497.949219 L 388.65625 354.839844 C 388.65625 352.859375 387.0625 351.257812 385.09375 351.257812 Z M 360.949219 351.257812 "/>
<path style=" stroke:none;fill-rule:evenodd;fill:rgb(24.705882%,23.921569%,33.72549%);fill-opacity:1;" d="M 562.832031 351.257812 C 560.867188 351.257812 559.277344 352.859375 559.273438 354.839844 L 559.273438 497.949219 C 559.277344 499.925781 560.867188 501.53125 562.832031 501.53125 L 586.980469 501.53125 C 588.945312 501.53125 590.535156 499.925781 590.539062 497.949219 L 590.539062 354.839844 C 590.535156 352.859375 588.945312 351.257812 586.980469 351.257812 Z M 562.832031 351.257812 "/>
<path style=" stroke:none;fill-rule:evenodd;fill:rgb(24.705882%,23.921569%,33.72549%);fill-opacity:1;" d="M 676.269531 237.785156 L 490.019531 223.390625 L 638.609375 248.75 L 674.214844 242.582031 Z M 676.269531 237.785156 "/>
<path style=" stroke:none;fill-rule:evenodd;fill:rgb(42.352941%,38.823529%,100%);fill-opacity:1;" d="M 639.957031 246.292969 L 675.5625 240.175781 L 675.914062 239.367188 L 677.617188 239.5 L 675.5625 244.253906 L 639.957031 250.371094 L 491.367188 223.390625 L 535.398438 228.601562 Z M 639.957031 246.292969 "/>
<path style=" stroke:none;fill-rule:evenodd;fill:rgb(24.705882%,23.921569%,33.72549%);fill-opacity:1;" d="M 254.710938 237.785156 L 68.730469 223.390625 L 217.105469 248.75 L 252.660156 242.582031 Z M 254.710938 237.785156 "/>
<path style=" stroke:none;fill-rule:evenodd;fill:rgb(42.352941%,38.823529%,100%);fill-opacity:1;" d="M 214.949219 246.292969 L 250.503906 240.175781 L 250.855469 239.367188 L 252.554688 239.5 L 250.503906 244.253906 L 214.949219 250.371094 L 66.574219 223.390625 L 110.546875 228.601562 Z M 214.949219 246.292969 "/>
<path style=" stroke:none;fill-rule:evenodd;fill:rgb(24.705882%,23.921569%,33.72549%);fill-opacity:1;" d="M 707.519531 312.402344 L 691.789062 313.082031 L 547.699219 373.960938 L 539.453125 380.875 L 513.308594 402.789062 L 431.25 402.789062 L 406.535156 380.875 L 397.136719 372.539062 L 258.921875 313.769531 L 246.609375 312.402344 L 287.640625 292.542969 L 287.859375 292.542969 C 297.160156 283.703125 377.703125 276.792969 475.699219 276.792969 C 573.691406 276.792969 654.234375 283.703125 663.535156 292.542969 L 664.4375 292.542969 Z M 707.519531 312.402344 "/>
<path style=" stroke:none;fill-rule:evenodd;fill:rgb(24.705882%,23.921569%,33.72549%);fill-opacity:1;" d="M 286.425781 293.464844 C 286.71875 292.640625 286.867188 291.773438 286.871094 290.902344 L 286.871094 258.324219 C 286.871094 254.066406 283.421875 250.609375 279.171875 250.609375 L 276.042969 250.609375 C 283.226562 243.34375 283.171875 231.617188 275.921875 224.421875 C 268.675781 217.222656 256.972656 217.277344 249.789062 224.539062 C 242.652344 231.757812 242.652344 243.394531 249.789062 250.609375 L 246.664062 250.609375 C 242.410156 250.609375 238.964844 254.066406 238.964844 258.324219 L 238.964844 290.902344 C 238.964844 292.234375 239.308594 293.546875 239.96875 294.703125 C 237.644531 295.113281 235.320312 295.558594 232.996094 296.070312 C 230.078125 296.722656 228.007812 299.320312 228.011719 302.316406 L 228.011719 310.054688 C 228.011719 313.585938 230.871094 316.453125 234.394531 316.453125 L 306.71875 316.453125 L 306.71875 297.25 C 300.039062 295.5625 293.265625 294.300781 286.425781 293.464844 Z M 286.425781 293.464844 "/>
<path style=" stroke:none;fill-rule:evenodd;fill:rgb(24.705882%,23.921569%,33.72549%);fill-opacity:1;" d="M 714.398438 296.070312 C 712.070312 295.558594 709.746094 295.113281 707.425781 294.703125 C 708.082031 293.546875 708.429688 292.234375 708.429688 290.902344 L 708.429688 258.324219 C 708.429688 254.066406 704.980469 250.609375 700.730469 250.609375 L 697.601562 250.609375 C 704.785156 243.34375 704.730469 231.617188 697.480469 224.421875 C 690.234375 217.222656 678.53125 217.277344 671.347656 224.539062 C 664.210938 231.757812 664.210938 243.394531 671.347656 250.609375 L 668.222656 250.609375 C 663.96875 250.609375 660.523438 254.066406 660.523438 258.324219 L 660.523438 290.902344 C 660.523438 291.773438 660.671875 292.640625 660.964844 293.464844 C 654.128906 294.300781 647.351562 295.5625 640.671875 297.25 L 640.671875 316.453125 L 712.996094 316.453125 C 716.519531 316.453125 719.378906 313.585938 719.378906 310.054688 L 719.378906 302.316406 C 719.382812 299.320312 717.3125 296.722656 714.398438 296.070312 Z M 714.398438 296.070312 "/>
<path style=" stroke:none;fill-rule:evenodd;fill:rgb(24.705882%,23.921569%,33.72549%);fill-opacity:1;" d="M 692.710938 237.785156 L 878.691406 223.390625 L 730.316406 248.75 L 694.761719 242.582031 Z M 692.710938 237.785156 "/>
<path style=" stroke:none;fill-rule:evenodd;fill:rgb(24.705882%,23.921569%,33.72549%);fill-opacity:1;" d="M 486.691406 396.582031 L 457.738281 396.582031 C 453.230469 396.582031 449.570312 400.230469 449.570312 404.738281 L 449.570312 411.039062 C 449.574219 414.433594 451.675781 417.46875 454.851562 418.664062 C 453.65625 420.101562 453 421.910156 453.003906 423.777344 L 453.003906 425.585938 C 453.003906 428.203125 454.28125 430.652344 456.433594 432.144531 L 456.433594 456.207031 L 487.992188 456.207031 L 487.992188 432.144531 C 490.140625 430.652344 491.425781 428.203125 491.425781 425.585938 L 491.425781 423.777344 C 491.425781 421.910156 490.773438 420.101562 489.578125 418.664062 C 492.75 417.46875 494.855469 414.433594 494.855469 411.039062 L 494.855469 404.738281 C 494.855469 400.230469 491.199219 396.582031 486.691406 396.582031 Z M 486.691406 396.582031 "/>
<path style=" stroke:none;fill-rule:evenodd;fill:rgb(42.352941%,38.823529%,100%);fill-opacity:1;" d="M 442.839844 452.699219 C 440.15625 452.703125 437.984375 454.871094 437.980469 457.550781 L 437.980469 496.410156 C 437.984375 499.085938 440.15625 501.257812 442.839844 501.261719 L 501.589844 501.261719 C 504.269531 501.257812 506.441406 499.085938 506.445312 496.410156 L 506.445312 457.550781 C 506.441406 454.871094 504.269531 452.703125 501.589844 452.699219 Z M 442.839844 452.699219 "/>
<path style=" stroke:none;fill-rule:evenodd;fill:rgb(42.352941%,38.823529%,100%);fill-opacity:1;" d="M 539.597656 380.84375 L 513.410156 402.789062 L 431.203125 402.789062 L 406.445312 380.84375 L 431.066406 380.84375 L 432.144531 375.472656 C 432.792969 372.21875 435.648438 369.871094 438.964844 369.871094 L 507.703125 369.871094 C 511.019531 369.871094 513.875 372.21875 514.523438 375.472656 L 515.601562 380.84375 Z M 539.597656 380.84375 "/>
<path style=" stroke:none;fill-rule:evenodd;fill:rgb(24.705882%,23.921569%,33.72549%);fill-opacity:1;" d="M 491.367188 476.996094 C 491.367188 487.574219 482.796875 496.152344 472.230469 496.152344 C 461.660156 496.152344 453.089844 487.574219 453.089844 476.996094 C 453.089844 466.417969 461.660156 457.839844 472.230469 457.839844 C 482.796875 457.839844 491.367188 466.417969 491.367188 476.996094 Z M 491.367188 476.996094 "/>
<path style=" stroke:none;fill-rule:evenodd;fill:rgb(90.196078%,90.196078%,90.196078%);fill-opacity:1;" d="M 483.28125 476.996094 C 483.28125 483.105469 478.394531 488.058594 472.363281 488.058594 C 466.335938 488.058594 461.449219 483.105469 461.449219 476.996094 C 461.449219 470.890625 466.335938 465.933594 472.363281 465.933594 C 478.394531 465.933594 483.28125 470.890625 483.28125 476.996094 Z M 483.28125 476.996094 "/>
<path style=" stroke:none;fill-rule:evenodd;fill:rgb(100%,100%,100%);fill-opacity:1;" d="M 478.929688 468.347656 C 482.59375 473.15625 481.671875 480.03125 476.863281 483.703125 C 472.945312 486.695312 467.507812 486.695312 463.585938 483.703125 C 467.242188 488.527344 474.109375 489.472656 478.929688 485.8125 C 483.75 482.160156 484.695312 475.285156 481.039062 470.460938 C 480.4375 469.660156 479.726562 468.953125 478.929688 468.347656 Z M 478.929688 468.347656 "/>
<path style=" stroke:none;fill-rule:evenodd;fill:rgb(90.196078%,90.196078%,90.196078%);fill-opacity:1;" d="M 228.296875 304.328125 L 719.664062 304.328125 L 719.664062 307.296875 L 228.296875 307.296875 Z M 228.296875 304.328125 "/>
<path style=" stroke:none;fill-rule:evenodd;fill:rgb(42.352941%,38.823529%,100%);fill-opacity:1;" d="M 731.664062 246.292969 L 696.109375 240.175781 L 695.757812 239.367188 L 694.058594 239.5 L 696.109375 244.253906 L 731.664062 250.371094 L 880.039062 223.390625 L 836.070312 228.601562 Z M 731.664062 246.292969 "/>
<path style=" stroke:none;fill-rule:evenodd;fill:rgb(24.705882%,23.921569%,33.72549%);fill-opacity:1;" d="M 271.152344 237.785156 L 457.136719 223.390625 L 308.761719 248.75 L 273.207031 242.582031 Z M 271.152344 237.785156 "/>
<path style=" stroke:none;fill-rule:evenodd;fill:rgb(42.352941%,38.823529%,100%);fill-opacity:1;" d="M 310.917969 246.292969 L 275.363281 240.175781 L 275.011719 239.367188 L 273.308594 239.5 L 275.363281 244.253906 L 310.917969 250.371094 L 459.292969 223.390625 L 415.320312 228.601562 Z M 310.917969 246.292969 "/>
<path style=" stroke:none;fill-rule:evenodd;fill:rgb(90.196078%,90.196078%,90.196078%);fill-opacity:1;" d="M 446.082031 375.554688 L 500.800781 375.554688 L 500.800781 386.617188 L 446.082031 386.617188 Z M 446.082031 375.554688 "/>
<path style=" stroke:none;fill-rule:evenodd;fill:rgb(24.705882%,23.921569%,33.72549%);fill-opacity:1;" d="M 626.507812 1.175781 C 625.675781 0.859375 624.84375 0.554688 624.011719 0.257812 L 537.183594 0.257812 C 536.558594 0.871094 535.964844 1.492188 535.386719 2.113281 L 629.003906 2.113281 C 628.171875 1.796875 627.339844 1.492188 626.507812 1.175781 Z M 52.261719 184.285156 L 52.261719 198.101562 C 52.632812 198.121094 53.019531 198.121094 53.390625 198.128906 L 52.644531 224.6875 L 52.261719 224.558594 L 52.261719 227.171875 L 52.570312 227.273438 L 52.261719 238.410156 L 52.261719 276.800781 L 55.230469 276.800781 L 55.230469 178.027344 C 54.398438 180.027344 53.410156 182.117188 52.261719 184.285156 Z M 626.507812 1.175781 C 625.675781 0.859375 624.84375 0.554688 624.011719 0.257812 L 537.183594 0.257812 C 536.558594 0.871094 535.964844 1.492188 535.386719 2.113281 L 629.003906 2.113281 C 628.171875 1.796875 627.339844 1.492188 626.507812 1.175781 Z M 888.746094 0.257812 L 62.660156 0.257812 C 56.917969 0.261719 52.265625 3.164062 52.261719 6.75 L 52.261719 545.496094 C 52.273438 549.078125 56.921875 551.980469 62.660156 551.988281 L 888.746094 551.988281 C 894.484375 551.984375 899.140625 549.082031 899.144531 545.496094 L 899.144531 6.75 C 899.140625 3.164062 894.484375 0.261719 888.746094 0.257812 Z M 896.171875 545.496094 C 896.171875 548.058594 892.847656 550.132812 888.746094 550.132812 L 62.660156 550.132812 C 58.558594 550.132812 55.234375 548.058594 55.230469 545.496094 L 55.230469 6.75 C 55.238281 4.191406 58.558594 2.117188 62.660156 2.113281 L 888.746094 2.113281 C 892.84375 2.117188 896.167969 4.191406 896.171875 6.75 Z M 896.171875 545.496094 "/>
<path style=" stroke:none;fill-rule:evenodd;fill:rgb(24.705882%,23.921569%,33.72549%);fill-opacity:1;" d="M 360.621094 324.226562 C 358.585938 323.351562 357.644531 320.996094 358.523438 318.964844 C 359.140625 317.535156 360.539062 316.589844 362.101562 316.546875 L 571.050781 310.792969 C 573.265625 310.730469 575.109375 312.472656 575.171875 314.683594 C 575.230469 316.894531 573.484375 318.734375 571.269531 318.792969 L 362.324219 324.550781 C 361.738281 324.570312 361.15625 324.457031 360.621094 324.226562 Z M 360.621094 324.226562 "/>
<path style=" stroke:none;fill-rule:evenodd;fill:rgb(90.196078%,90.196078%,90.196078%);fill-opacity:1;" d="M 590.824219 186.160156 C 590.824219 191.96875 587.328125 196.679688 583.007812 196.679688 C 578.691406 196.679688 575.191406 191.96875 575.191406 186.160156 C 575.191406 180.347656 578.691406 175.636719 583.007812 175.636719 C 587.328125 175.636719 590.824219 180.347656 590.824219 186.160156 Z M 590.824219 186.160156 "/>
<path style=" stroke:none;fill-rule:evenodd;fill:rgb(90.196078%,90.196078%,90.196078%);fill-opacity:1;" d="M 631.792969 340.480469 C 631.792969 346.292969 628.296875 351.003906 623.976562 351.003906 C 619.660156 351.003906 616.160156 346.292969 616.160156 340.480469 C 616.160156 334.667969 619.660156 329.957031 623.976562 329.957031 C 628.296875 329.957031 631.792969 334.667969 631.792969 340.480469 Z M 631.792969 340.480469 "/>
<path style=" stroke:none;fill-rule:evenodd;fill:rgb(90.196078%,90.196078%,90.196078%);fill-opacity:1;" d="M 327.21875 310.804688 C 327.21875 316.613281 323.71875 321.324219 319.402344 321.324219 C 315.082031 321.324219 311.585938 316.613281 311.585938 310.804688 C 311.585938 304.992188 315.082031 300.28125 319.402344 300.28125 C 323.71875 300.28125 327.21875 304.992188 327.21875 310.804688 Z M 327.21875 310.804688 "/>
<path style=" stroke:none;fill-rule:evenodd;fill:rgb(94.901961%,94.901961%,94.901961%);fill-opacity:1;" d="M 636.117188 97.855469 C 606.28125 120.484375 546.917969 113.335938 528.496094 152.09375 C 472.71875 269.4375 425.003906 180.046875 376.164062 170.382812 L 375.714844 167.984375 C 424.605469 172.042969 477.042969 165.746094 527.367188 149.765625 C 572.839844 135.328125 613.414062 113.847656 644.691406 87.671875 L 646.332031 89.722656 C 643.027344 92.484375 639.621094 95.199219 636.117188 97.855469 Z M 636.117188 97.855469 "/>
<path style=" stroke:none;fill-rule:evenodd;fill:rgb(90.196078%,90.196078%,90.196078%);fill-opacity:1;" d="M 311.585938 217.183594 C 311.585938 222.996094 308.085938 227.707031 303.769531 227.707031 C 299.449219 227.707031 295.953125 222.996094 295.953125 217.183594 C 295.953125 211.375 299.449219 206.664062 303.769531 206.664062 C 308.085938 206.664062 311.585938 211.375 311.585938 217.183594 Z M 311.585938 217.183594 "/>
<path style=" stroke:none;fill-rule:evenodd;fill:rgb(100%,39.607843%,51.764706%);fill-opacity:1;" d="M 368.996094 193.710938 C 368.996094 199.222656 364.59375 203.695312 359.15625 203.695312 C 353.722656 203.695312 349.320312 199.222656 349.320312 193.710938 C 349.320312 188.199219 353.722656 183.730469 359.15625 183.730469 C 364.59375 183.730469 368.996094 188.199219 368.996094 193.710938 Z M 368.996094 193.710938 "/>
<path style=" stroke:none;fill-rule:evenodd;fill:rgb(90.196078%,90.196078%,90.196078%);fill-opacity:1;" d="M 265.683594 197.113281 C 266.246094 199.496094 265.363281 201.742188 263.707031 202.132812 C 262.050781 202.523438 260.253906 200.914062 259.695312 198.53125 C 259.128906 196.152344 260.015625 193.902344 261.667969 193.511719 C 263.320312 193.117188 265.121094 194.734375 265.683594 197.113281 Z M 265.683594 197.113281 "/>
<path style=" stroke:none;fill-rule:evenodd;fill:rgb(90.196078%,90.196078%,90.196078%);fill-opacity:1;" d="M 265.414062 226.070312 C 265.976562 228.449219 265.09375 230.695312 263.4375 231.085938 C 261.78125 231.480469 259.984375 229.867188 259.421875 227.488281 C 258.859375 225.109375 259.746094 222.859375 261.398438 222.46875 C 263.050781 222.074219 264.851562 223.6875 265.414062 226.070312 Z M 265.414062 226.070312 "/>
<path style=" stroke:none;fill-rule:evenodd;fill:rgb(90.196078%,90.196078%,90.196078%);fill-opacity:1;" d="M 683.28125 270.554688 C 683.972656 273.160156 681.503906 276.074219 677.769531 277.070312 C 674.03125 278.066406 670.441406 276.765625 669.75 274.164062 C 669.058594 271.5625 671.523438 268.644531 675.261719 267.648438 C 679 266.652344 682.589844 267.953125 683.28125 270.554688 Z M 683.28125 270.554688 "/>
<path style=" stroke:none;fill-rule:evenodd;fill:rgb(90.196078%,90.196078%,90.196078%);fill-opacity:1;" d="M 637.515625 271.40625 C 638.203125 274.007812 635.738281 276.921875 632 277.917969 C 628.265625 278.917969 624.671875 277.613281 623.980469 275.011719 C 623.289062 272.410156 625.757812 269.492188 629.492188 268.496094 C 633.230469 267.5 636.820312 268.800781 637.515625 271.40625 Z M 637.515625 271.40625 "/>
<path style=" stroke:none;fill-rule:evenodd;fill:rgb(90.196078%,90.196078%,90.196078%);fill-opacity:1;" d="M 691.410156 232.441406 C 692.105469 235.046875 689.632812 237.960938 685.898438 238.957031 C 682.160156 239.953125 678.574219 238.648438 677.878906 236.046875 C 677.1875 233.449219 679.652344 230.53125 683.390625 229.535156 C 687.128906 228.539062 690.71875 229.839844 691.410156 232.441406 Z M 691.410156 232.441406 "/>
<path style=" stroke:none;fill-rule:evenodd;fill:rgb(90.196078%,90.196078%,90.196078%);fill-opacity:1;" d="M 701.910156 217.976562 C 702.210938 220.402344 701.085938 222.542969 699.398438 222.75 C 697.710938 222.960938 696.101562 221.160156 695.800781 218.734375 C 695.5 216.308594 696.625 214.167969 698.3125 213.960938 C 700 213.75 701.609375 215.550781 701.910156 217.976562 Z M 701.910156 217.976562 "/>
<path style=" stroke:none;fill-rule:evenodd;fill:rgb(90.196078%,90.196078%,90.196078%);fill-opacity:1;" d="M 705.328125 189.222656 C 705.625 191.648438 704.503906 193.789062 702.816406 193.996094 C 701.128906 194.207031 699.519531 192.40625 699.214844 189.980469 C 698.917969 187.554688 700.042969 185.414062 701.730469 185.207031 C 703.414062 184.996094 705.023438 186.796875 705.328125 189.222656 Z M 705.328125 189.222656 "/>
<path style=" stroke:none;fill-rule:evenodd;fill:rgb(90.196078%,90.196078%,90.196078%);fill-opacity:1;" d="M 659.191406 244.5 C 659.492188 246.925781 658.367188 249.066406 656.679688 249.273438 C 654.992188 249.484375 653.382812 247.683594 653.082031 245.257812 C 652.78125 242.832031 653.90625 240.691406 655.59375 240.484375 C 657.28125 240.273438 658.890625 242.074219 659.191406 244.5 Z M 659.191406 244.5 "/>
<path style=" stroke:none;fill-rule:evenodd;fill:rgb(90.196078%,90.196078%,90.196078%);fill-opacity:1;" d="M 682.332031 252.882812 C 682.632812 255.308594 681.507812 257.449219 679.820312 257.65625 C 678.132812 257.867188 676.523438 256.066406 676.21875 253.640625 C 675.921875 251.214844 677.042969 249.074219 678.730469 248.867188 C 680.417969 248.65625 682.03125 250.457031 682.332031 252.882812 Z M 682.332031 252.882812 "/>
<path style=" stroke:none;fill-rule:evenodd;fill:rgb(90.196078%,90.196078%,90.196078%);fill-opacity:1;" d="M 654.238281 276.625 C 654.535156 279.054688 653.410156 281.191406 651.722656 281.402344 C 650.039062 281.613281 648.429688 279.8125 648.125 277.382812 C 647.828125 274.957031 648.949219 272.820312 650.636719 272.613281 C 652.324219 272.402344 653.933594 274.199219 654.238281 276.625 Z M 654.238281 276.625 "/>
<path style=" stroke:none;fill-rule:evenodd;fill:rgb(83.137255%,32.156863%,91.764706%);fill-opacity:1;" d="M 811.769531 517.175781 C 797.1875 517.175781 781.207031 516.375 763.828125 514.777344 C 673.921875 506.484375 557.472656 477.648438 435.925781 433.585938 C 314.378906 389.523438 202.253906 335.496094 120.207031 281.457031 C 80.242188 255.132812 49.566406 230.214844 29.039062 207.398438 C 7.304688 183.238281 -2.203125 162.179688 0.78125 144.808594 C 6.59375 110.964844 58.070312 103.5625 100.226562 103.308594 L 100.242188 108.230469 C 42.347656 108.578125 8.191406 121.992188 4.070312 146 C -1.183594 176.578125 41.65625 224.316406 121.605469 276.976562 C 203.472656 330.894531 315.390625 384.820312 436.746094 428.8125 C 558.101562 472.800781 674.335938 501.585938 764.039062 509.863281 C 851.644531 517.945312 904.90625 505.046875 910.15625 474.464844 C 914.515625 449.074219 885.769531 411.675781 829.203125 369.148438 L 830.757812 364.78125 C 871.859375 395.679688 919.5625 439.996094 913.445312 475.65625 C 910.460938 493.027344 895.257812 505.128906 868.257812 511.621094 C 852.867188 515.320312 833.964844 517.175781 811.769531 517.175781 Z M 811.769531 517.175781 "/>
</g>
</svg>
